<svg width="684" height="244" viewBox="0 0 684 244" fill="none" xmlns="http://www.w3.org/2000/svg">
<path d="M45.6 194V80.4H0.8V54H122.8V80.4H78V194H45.6ZM181.089 195.6C172.156 195.6 164.156 193.867 157.089 190.4C150.156 186.933 144.756 181.667 140.889 174.6C137.022 167.4 135.089 158.267 135.089 147.2V86.4H166.289V142.6C166.289 151.533 168.156 158.133 171.889 162.4C175.756 166.533 181.156 168.6 188.089 168.6C192.889 168.6 197.156 167.6 200.889 165.6C204.622 163.467 207.556 160.267 209.689 156C211.822 151.6 212.889 146.133 212.889 139.6V86.4H244.089V194H214.489V164.4L219.889 173C216.289 180.467 210.956 186.133 203.889 190C196.956 193.733 189.356 195.6 181.089 195.6ZM272.994 194V86.4H302.794V116.8L298.594 108C301.794 100.4 306.927 94.6667 313.994 90.8C321.06 86.8 329.66 84.8 339.794 84.8V113.6C338.46 113.467 337.26 113.4 336.194 113.4C335.127 113.267 333.994 113.2 332.794 113.2C324.26 113.2 317.327 115.667 311.994 120.6C306.794 125.4 304.194 132.933 304.194 143.2V194H272.994ZM358.541 194V86.4H389.741V194H358.541ZM374.141 71.4C368.407 71.4 363.741 69.7333 360.141 66.4C356.541 63.0667 354.741 58.9333 354.741 54C354.741 49.0667 356.541 44.9333 360.141 41.6C363.741 38.2667 368.407 36.6 374.141 36.6C379.874 36.6 384.541 38.2 388.141 41.4C391.741 44.4667 393.541 48.4667 393.541 53.4C393.541 58.6 391.741 62.9333 388.141 66.4C384.674 69.7333 380.007 71.4 374.141 71.4ZM484.097 84.8C492.63 84.8 500.23 86.5333 506.897 90C513.697 93.3333 519.03 98.5333 522.897 105.6C526.764 112.533 528.697 121.467 528.697 132.4V194H497.497V137.2C497.497 128.533 495.564 122.133 491.697 118C487.964 113.867 482.63 111.8 475.697 111.8C470.764 111.8 466.297 112.867 462.297 115C458.43 117 455.364 120.133 453.097 124.4C450.964 128.667 449.897 134.133 449.897 140.8V194H418.697V86.4H448.497V116.2L442.897 107.2C446.764 100 452.297 94.4667 459.497 90.6C466.697 86.7333 474.897 84.8 484.097 84.8ZM608.359 234.4C598.226 234.4 588.426 233.133 578.959 230.6C569.626 228.2 561.826 224.533 555.559 219.6L567.959 197.2C572.493 200.933 578.226 203.867 585.159 206C592.226 208.267 599.159 209.4 605.959 209.4C617.026 209.4 625.026 206.933 629.959 202C635.026 197.067 637.559 189.733 637.559 180V163.8L639.559 136.8L639.159 109.6V86.4H668.759V176C668.759 196 663.559 210.733 653.159 220.2C642.759 229.667 627.826 234.4 608.359 234.4ZM603.559 188.8C593.559 188.8 584.493 186.667 576.359 182.4C568.359 178 561.893 171.933 556.959 164.2C552.159 156.333 549.759 147.2 549.759 136.8C549.759 126.267 552.159 117.133 556.959 109.4C561.893 101.533 568.359 95.4667 576.359 91.2C584.493 86.9333 593.559 84.8 603.559 84.8C612.626 84.8 620.626 86.6667 627.559 90.4C634.493 94 639.893 99.6667 643.759 107.4C647.626 115 649.559 124.8 649.559 136.8C649.559 148.667 647.626 158.467 643.759 166.2C639.893 173.8 634.493 179.467 627.559 183.2C620.626 186.933 612.626 188.8 603.559 188.8ZM609.759 163.2C615.226 163.2 620.093 162.133 624.359 160C628.626 157.733 631.959 154.6 634.359 150.6C636.759 146.6 637.959 142 637.959 136.8C637.959 131.467 636.759 126.867 634.359 123C631.959 119 628.626 115.933 624.359 113.8C620.093 111.533 615.226 110.4 609.759 110.4C604.293 110.4 599.426 111.533 595.159 113.8C590.893 115.933 587.493 119 584.959 123C582.559 126.867 581.359 131.467 581.359 136.8C581.359 142 582.559 146.6 584.959 150.6C587.493 154.6 590.893 157.733 595.159 160C599.426 162.133 604.293 163.2 609.759 163.2Z" fill="#492073"/>
<path d="M45.6 194V80.4H0.8V54H122.8V80.4H78V194H45.6ZM181.089 195.6C172.156 195.6 164.156 193.867 157.089 190.4C150.156 186.933 144.756 181.667 140.889 174.6C137.022 167.4 135.089 158.267 135.089 147.2V86.4H166.289V142.6C166.289 151.533 168.156 158.133 171.889 162.4C175.756 166.533 181.156 168.6 188.089 168.6C192.889 168.6 197.156 167.6 200.889 165.6C204.622 163.467 207.556 160.267 209.689 156C211.822 151.6 212.889 146.133 212.889 139.6V86.4H244.089V194H214.489V164.4L219.889 173C216.289 180.467 210.956 186.133 203.889 190C196.956 193.733 189.356 195.6 181.089 195.6ZM272.994 194V86.4H302.794V116.8L298.594 108C301.794 100.4 306.927 94.6667 313.994 90.8C321.06 86.8 329.66 84.8 339.794 84.8V113.6C338.46 113.467 337.26 113.4 336.194 113.4C335.127 113.267 333.994 113.2 332.794 113.2C324.26 113.2 317.327 115.667 311.994 120.6C306.794 125.4 304.194 132.933 304.194 143.2V194H272.994ZM358.541 194V86.4H389.741V194H358.541ZM374.141 71.4C368.407 71.4 363.741 69.7333 360.141 66.4C356.541 63.0667 354.741 58.9333 354.741 54C354.741 49.0667 356.541 44.9333 360.141 41.6C363.741 38.2667 368.407 36.6 374.141 36.6C379.874 36.6 384.541 38.2 388.141 41.4C391.741 44.4667 393.541 48.4667 393.541 53.4C393.541 58.6 391.741 62.9333 388.141 66.4C384.674 69.7333 380.007 71.4 374.141 71.4ZM484.097 84.8C492.63 84.8 500.23 86.5333 506.897 90C513.697 93.3333 519.03 98.5333 522.897 105.6C526.764 112.533 528.697 121.467 528.697 132.4V194H497.497V137.2C497.497 128.533 495.564 122.133 491.697 118C487.964 113.867 482.63 111.8 475.697 111.8C470.764 111.8 466.297 112.867 462.297 115C458.43 117 455.364 120.133 453.097 124.4C450.964 128.667 449.897 134.133 449.897 140.8V194H418.697V86.4H448.497V116.2L442.897 107.2C446.764 100 452.297 94.4667 459.497 90.6C466.697 86.7333 474.897 84.8 484.097 84.8ZM608.359 234.4C598.226 234.4 588.426 233.133 578.959 230.6C569.626 228.2 561.826 224.533 555.559 219.6L567.959 197.2C572.493 200.933 578.226 203.867 585.159 206C592.226 208.267 599.159 209.4 605.959 209.4C617.026 209.4 625.026 206.933 629.959 202C635.026 197.067 637.559 189.733 637.559 180V163.8L639.559 136.8L639.159 109.6V86.4H668.759V176C668.759 196 663.559 210.733 653.159 220.2C642.759 229.667 627.826 234.4 608.359 234.4ZM603.559 188.8C593.559 188.8 584.493 186.667 576.359 182.4C568.359 178 561.893 171.933 556.959 164.2C552.159 156.333 549.759 147.2 549.759 136.8C549.759 126.267 552.159 117.133 556.959 109.4C561.893 101.533 568.359 95.4667 576.359 91.2C584.493 86.9333 593.559 84.8 603.559 84.8C612.626 84.8 620.626 86.6667 627.559 90.4C634.493 94 639.893 99.6667 643.759 107.4C647.626 115 649.559 124.8 649.559 136.8C649.559 148.667 647.626 158.467 643.759 166.2C639.893 173.8 634.493 179.467 627.559 183.2C620.626 186.933 612.626 188.8 603.559 188.8ZM609.759 163.2C615.226 163.2 620.093 162.133 624.359 160C628.626 157.733 631.959 154.6 634.359 150.6C636.759 146.6 637.959 142 637.959 136.8C637.959 131.467 636.759 126.867 634.359 123C631.959 119 628.626 115.933 624.359 113.8C620.093 111.533 615.226 110.4 609.759 110.4C604.293 110.4 599.426 111.533 595.159 113.8C590.893 115.933 587.493 119 584.959 123C582.559 126.867 581.359 131.467 581.359 136.8C581.359 142 582.559 146.6 584.959 150.6C587.493 154.6 590.893 157.733 595.159 160C599.426 162.133 604.293 163.2 609.759 163.2Z" fill="#161616" fill-opacity="0.3"/>
<path d="M9.36 23.192C8.272 23.192 7.32 22.952 6.504 22.472C5.688 21.992 5.048 21.264 4.584 20.288C4.136 19.296 3.912 18.048 3.912 16.544C3.912 15.024 4.128 13.776 4.56 12.8C4.992 11.824 5.616 11.096 6.432 10.616C7.248 10.136 8.224 9.896 9.36 9.896C10.576 9.896 11.664 10.176 12.624 10.736C13.6 11.28 14.368 12.048 14.928 13.04C15.504 14.032 15.792 15.2 15.792 16.544C15.792 17.904 15.504 19.08 14.928 20.072C14.368 21.064 13.6 21.832 12.624 22.376C11.664 22.92 10.576 23.192 9.36 23.192ZM1.728 27.656L1.728 10.088H5.304V12.728L5.232 16.568L5.472 20.384V27.656H1.728ZM8.712 20.12C9.336 20.12 9.888 19.976 10.368 19.688C10.864 19.4 11.256 18.992 11.544 18.464C11.848 17.92 12 17.28 12 16.544C12 15.792 11.848 15.152 11.544 14.624C11.256 14.096 10.864 13.688 10.368 13.4C9.888 13.112 9.336 12.968 8.712 12.968C8.088 12.968 7.528 13.112 7.032 13.4C6.536 13.688 6.144 14.096 5.856 14.624C5.568 15.152 5.424 15.792 5.424 16.544C5.424 17.28 5.568 17.92 5.856 18.464C6.144 18.992 6.536 19.4 7.032 19.688C7.528 19.976 8.088 20.12 8.712 20.12ZM23.6983 23V10.088H27.2743V13.736L26.7703 12.68C27.1543 11.768 27.7703 11.08 28.6183 10.616C29.4663 10.136 30.4983 9.896 31.7143 9.896V13.352C31.5543 13.336 31.4103 13.328 31.2823 13.328C31.1543 13.312 31.0183 13.304 30.8743 13.304C29.8503 13.304 29.0183 13.6 28.3783 14.192C27.7543 14.768 27.4423 15.672 27.4423 16.904V23H23.6983ZM45.3907 23.192C44.0147 23.192 42.7907 22.904 41.7187 22.328C40.6627 21.752 39.8227 20.968 39.1987 19.976C38.5907 18.968 38.2867 17.824 38.2867 16.544C38.2867 15.248 38.5907 14.104 39.1987 13.112C39.8227 12.104 40.6627 11.32 41.7187 10.76C42.7907 10.184 44.0147 9.896 45.3907 9.896C46.7507 9.896 47.9667 10.184 49.0387 10.76C50.1108 11.32 50.9508 12.096 51.5588 13.088C52.1667 14.08 52.4707 15.232 52.4707 16.544C52.4707 17.824 52.1667 18.968 51.5588 19.976C50.9508 20.968 50.1108 21.752 49.0387 22.328C47.9667 22.904 46.7507 23.192 45.3907 23.192ZM45.3907 20.12C46.0147 20.12 46.5747 19.976 47.0707 19.688C47.5667 19.4 47.9587 18.992 48.2467 18.464C48.5347 17.92 48.6788 17.28 48.6788 16.544C48.6788 15.792 48.5347 15.152 48.2467 14.624C47.9587 14.096 47.5667 13.688 47.0707 13.4C46.5747 13.112 46.0147 12.968 45.3907 12.968C44.7667 12.968 44.2067 13.112 43.7107 13.4C43.2147 13.688 42.8147 14.096 42.5107 14.624C42.2227 15.152 42.0787 15.792 42.0787 16.544C42.0787 17.28 42.2227 17.92 42.5107 18.464C42.8147 18.992 43.2147 19.4 43.7107 19.688C44.2067 19.976 44.7667 20.12 45.3907 20.12ZM68.0053 23.192C66.8693 23.192 65.8933 22.952 65.0773 22.472C64.2613 21.992 63.6373 21.264 63.2053 20.288C62.7733 19.296 62.5573 18.048 62.5573 16.544C62.5573 15.024 62.7813 13.776 63.2293 12.8C63.6933 11.824 64.3333 11.096 65.1493 10.616C65.9653 10.136 66.9173 9.896 68.0053 9.896C69.2213 9.896 70.3093 10.168 71.2693 10.712C72.2453 11.256 73.0133 12.024 73.5733 13.016C74.1493 14.008 74.4373 15.184 74.4373 16.544C74.4373 17.888 74.1493 19.056 73.5733 20.048C73.0133 21.04 72.2453 21.816 71.2693 22.376C70.3093 22.92 69.2213 23.192 68.0053 23.192ZM60.3733 23V5.192H64.1173V12.704L63.8773 16.52L63.9493 20.36V23H60.3733ZM67.3573 20.12C67.9813 20.12 68.5333 19.976 69.0133 19.688C69.5093 19.4 69.9013 18.992 70.1893 18.464C70.4933 17.92 70.6453 17.28 70.6453 16.544C70.6453 15.792 70.4933 15.152 70.1893 14.624C69.9013 14.096 69.5093 13.688 69.0133 13.4C68.5333 13.112 67.9813 12.968 67.3573 12.968C66.7333 12.968 66.1733 13.112 65.6773 13.4C65.1813 13.688 64.7893 14.096 64.5013 14.624C64.2133 15.152 64.0693 15.792 64.0693 16.544C64.0693 17.28 64.2133 17.92 64.5013 18.464C64.7893 18.992 65.1813 19.4 65.6773 19.688C66.1733 19.976 66.7333 20.12 67.3573 20.12ZM88.7516 23.192C87.2796 23.192 85.9836 22.904 84.8636 22.328C83.7596 21.752 82.9036 20.968 82.2956 19.976C81.6876 18.968 81.3836 17.824 81.3836 16.544C81.3836 15.248 81.6796 14.104 82.2716 13.112C82.8796 12.104 83.7036 11.32 84.7436 10.76C85.7836 10.184 86.9596 9.896 88.2716 9.896C89.5356 9.896 90.6716 10.168 91.6796 10.712C92.7036 11.24 93.5116 12.008 94.1036 13.016C94.6956 14.008 94.9916 15.2 94.9916 16.592C94.9916 16.736 94.9836 16.904 94.9676 17.096C94.9516 17.272 94.9356 17.44 94.9196 17.6H84.4316V15.416H92.9516L91.5116 16.064C91.5116 15.392 91.3756 14.808 91.1036 14.312C90.8316 13.816 90.4556 13.432 89.9756 13.16C89.4956 12.872 88.9356 12.728 88.2956 12.728C87.6556 12.728 87.0876 12.872 86.5916 13.16C86.1116 13.432 85.7356 13.824 85.4636 14.336C85.1916 14.832 85.0556 15.424 85.0556 16.112V16.688C85.0556 17.392 85.2076 18.016 85.5116 18.56C85.8316 19.088 86.2716 19.496 86.8316 19.784C87.4076 20.056 88.0796 20.192 88.8476 20.192C89.5356 20.192 90.1356 20.088 90.6476 19.88C91.1756 19.672 91.6556 19.36 92.0876 18.944L94.0796 21.104C93.4876 21.776 92.7436 22.296 91.8476 22.664C90.9516 23.016 89.9196 23.192 88.7516 23.192ZM102.884 23V10.088H106.46V13.736L105.956 12.68C106.34 11.768 106.956 11.08 107.804 10.616C108.652 10.136 109.684 9.896 110.9 9.896V13.352C110.74 13.336 110.596 13.328 110.468 13.328C110.34 13.312 110.204 13.304 110.06 13.304C109.036 13.304 108.204 13.6 107.564 14.192C106.94 14.768 106.628 15.672 106.628 16.904V23H102.884ZM117.66 27.848C117.084 27.848 116.532 27.784 116.004 27.656C115.476 27.544 115.028 27.368 114.66 27.128L115.668 24.416C116.1 24.72 116.628 24.872 117.252 24.872C117.716 24.872 118.084 24.712 118.356 24.392C118.644 24.088 118.788 23.624 118.788 23V10.088H122.532V22.976C122.532 24.464 122.108 25.648 121.26 26.528C120.412 27.408 119.212 27.848 117.66 27.848ZM120.66 8.288C119.972 8.288 119.412 8.088 118.98 7.688C118.548 7.288 118.332 6.792 118.332 6.2C118.332 5.608 118.548 5.112 118.98 4.712C119.412 4.312 119.972 4.112 120.66 4.112C121.348 4.112 121.908 4.304 122.34 4.688C122.772 5.056 122.988 5.536 122.988 6.128C122.988 6.752 122.772 7.272 122.34 7.688C121.924 8.088 121.364 8.288 120.66 8.288ZM137.788 23.192C136.316 23.192 135.02 22.904 133.9 22.328C132.796 21.752 131.94 20.968 131.332 19.976C130.724 18.968 130.42 17.824 130.42 16.544C130.42 15.248 130.716 14.104 131.308 13.112C131.916 12.104 132.74 11.32 133.78 10.76C134.82 10.184 135.996 9.896 137.308 9.896C138.572 9.896 139.708 10.168 140.716 10.712C141.74 11.24 142.548 12.008 143.14 13.016C143.732 14.008 144.028 15.2 144.028 16.592C144.028 16.736 144.02 16.904 144.004 17.096C143.988 17.272 143.972 17.44 143.956 17.6H133.468V15.416H141.988L140.548 16.064C140.548 15.392 140.412 14.808 140.14 14.312C139.868 13.816 139.492 13.432 139.012 13.16C138.532 12.872 137.972 12.728 137.332 12.728C136.692 12.728 136.124 12.872 135.628 13.16C135.148 13.432 134.772 13.824 134.5 14.336C134.228 14.832 134.092 15.424 134.092 16.112V16.688C134.092 17.392 134.244 18.016 134.548 18.56C134.868 19.088 135.308 19.496 135.868 19.784C136.444 20.056 137.116 20.192 137.884 20.192C138.572 20.192 139.172 20.088 139.684 19.88C140.212 19.672 140.692 19.36 141.124 18.944L143.116 21.104C142.524 21.776 141.78 22.296 140.884 22.664C139.988 23.016 138.956 23.192 137.788 23.192ZM159.768 9.896C160.792 9.896 161.704 10.104 162.504 10.52C163.32 10.92 163.96 11.544 164.424 12.392C164.888 13.224 165.12 14.296 165.12 15.608V23H161.376V16.184C161.376 15.144 161.144 14.376 160.68 13.88C160.232 13.384 159.592 13.136 158.76 13.136C158.168 13.136 157.632 13.264 157.152 13.52C156.688 13.76 156.32 14.136 156.048 14.648C155.792 15.16 155.664 15.816 155.664 16.616V23H151.92V10.088H155.496V13.664L154.824 12.584C155.288 11.72 155.952 11.056 156.816 10.592C157.68 10.128 158.664 9.896 159.768 9.896ZM179.194 23.192C177.674 23.192 176.49 22.808 175.642 22.04C174.794 21.256 174.37 20.096 174.37 18.56V7.232L178.114 7.232V18.512C178.114 19.056 178.258 19.48 178.546 19.784C178.834 20.072 179.226 20.216 179.722 20.216C180.314 20.216 180.818 20.056 181.234 19.736L182.242 22.376C181.858 22.648 181.394 22.856 180.85 23C180.322 23.128 179.77 23.192 179.194 23.192ZM172.378 13.256V10.376H181.33V13.256H172.378ZM195.753 23.192C194.281 23.192 192.985 22.904 191.865 22.328C190.761 21.752 189.905 20.968 189.297 19.976C188.689 18.968 188.385 17.824 188.385 16.544C188.385 15.248 188.681 14.104 189.273 13.112C189.881 12.104 190.705 11.32 191.745 10.76C192.785 10.184 193.961 9.896 195.273 9.896C196.537 9.896 197.673 10.168 198.681 10.712C199.705 11.24 200.513 12.008 201.105 13.016C201.697 14.008 201.993 15.2 201.993 16.592C201.993 16.736 201.985 16.904 201.969 17.096C201.953 17.272 201.937 17.44 201.921 17.6H191.433V15.416L199.953 15.416L198.513 16.064C198.513 15.392 198.377 14.808 198.105 14.312C197.833 13.816 197.457 13.432 196.977 13.16C196.497 12.872 195.937 12.728 195.297 12.728C194.657 12.728 194.089 12.872 193.593 13.16C193.113 13.432 192.737 13.824 192.465 14.336C192.193 14.832 192.057 15.424 192.057 16.112V16.688C192.057 17.392 192.209 18.016 192.513 18.56C192.833 19.088 193.273 19.496 193.833 19.784C194.409 20.056 195.081 20.192 195.849 20.192C196.537 20.192 197.137 20.088 197.649 19.88C198.177 19.672 198.657 19.36 199.089 18.944L201.081 21.104C200.489 21.776 199.745 22.296 198.849 22.664C197.953 23.016 196.921 23.192 195.753 23.192ZM209.886 23V10.088H213.462V13.736L212.958 12.68C213.342 11.768 213.958 11.08 214.806 10.616C215.654 10.136 216.686 9.896 217.902 9.896V13.352C217.742 13.336 217.598 13.328 217.47 13.328C217.342 13.312 217.206 13.304 217.062 13.304C216.038 13.304 215.206 13.6 214.566 14.192C213.942 14.768 213.63 15.672 213.63 16.904V23H209.886ZM231.674 23.192C230.282 23.192 229.042 22.912 227.954 22.352C226.866 21.776 226.01 20.984 225.386 19.976C224.778 18.968 224.474 17.824 224.474 16.544C224.474 15.248 224.778 14.104 225.386 13.112C226.01 12.104 226.866 11.32 227.954 10.76C229.042 10.184 230.282 9.896 231.674 9.896C233.034 9.896 234.218 10.184 235.226 10.76C236.234 11.32 236.978 12.128 237.458 13.184L234.554 14.744C234.218 14.136 233.794 13.688 233.282 13.4C232.786 13.112 232.242 12.968 231.65 12.968C231.01 12.968 230.434 13.112 229.922 13.4C229.41 13.688 229.002 14.096 228.698 14.624C228.41 15.152 228.266 15.792 228.266 16.544C228.266 17.296 228.41 17.936 228.698 18.464C229.002 18.992 229.41 19.4 229.922 19.688C230.434 19.976 231.01 20.12 231.65 20.12C232.242 20.12 232.786 19.984 233.282 19.712C233.794 19.424 234.218 18.968 234.554 18.344L237.458 19.928C236.978 20.968 236.234 21.776 235.226 22.352C234.218 22.912 233.034 23.192 231.674 23.192ZM250.481 23.192C248.961 23.192 247.777 22.808 246.929 22.04C246.081 21.256 245.657 20.096 245.657 18.56V7.232H249.401V18.512C249.401 19.056 249.545 19.48 249.833 19.784C250.121 20.072 250.513 20.216 251.009 20.216C251.601 20.216 252.105 20.056 252.521 19.736L253.529 22.376C253.145 22.648 252.681 22.856 252.137 23C251.609 23.128 251.057 23.192 250.481 23.192ZM243.665 13.256V10.376H252.617V13.256H243.665Z" fill="#F2A74B"/>
<ellipse cx="374" cy="54" rx="20" ry="18" fill="#F2A74B"/>
</svg>
